Coordinates
version=1
nRows=17
nColumns=63
inDegrees=yes

Units are S.I. units (second, meters, Newtons, ...)
If the header above contains a line with 'inDegrees', this indicates whether rotational values are in degrees (yes) or radians (no).

endheader
time	pelvis_tilt	pelvis_list	pelvis_rotation	pelvis_tx	pelvis_ty	pelvis_tz	hip_flexion_r	hip_adduction_r	hip_rotation_r	knee_angle_r	knee_angle_r_beta	ankle_angle_r	subtalar_angle_r	mtp_angle_r	hip_flexion_l	hip_adduction_l	hip_rotation_l	knee_angle_l	knee_angle_l_beta	ankle_angle_l	subtalar_angle_l	mtp_angle_l	L5_S1_Flex_Ext	L5_S1_Lat_Bending	L5_S1_axial_rotation	L4_L5_Flex_Ext	L4_L5_Lat_Bending	L4_L5_axial_rotation	L3_L4_Flex_Ext	L3_L4_Lat_Bending	L3_L4_axial_rotation	L2_L3_Flex_Ext	L2_L3_Lat_Bending	L2_L3_axial_rotation	L1_L2_Flex_Ext	L1_L2_Lat_Bending	L1_L2_axial_rotation	L1_T12_Flex_Ext	L1_T12_Lat_Bending	L1_T12_axial_rotation	Abs_r3	Abs_r2	Abs_r1	Abs_t1	Abs_t2	neck_flexion	neck_bending	neck_rotation	arm_flex_r	arm_add_r	arm_rot_r	elbow_flex_r	pro_sup_r	wrist_flex_r	wrist_dev_r	arm_flex_l	arm_add_l	arm_rot_l	elbow_flex_l	pro_sup_l	wrist_flex_l	wrist_dev_l
5.066667	-6.116596	3.736926	91.248759	0.051657	0.889944	0.720599	6.260685	-5.048329	11.627585	27.153603	0.473920	37.008181	-11.361402	0.000000	-2.511315	6.031468	-13.746376	10.482595	0.182956	35.874919	13.188659	0.000000	-0.503667	-1.234212	-4.956634	-0.935360	-1.641502	-5.266424	-0.827474	-3.000863	-5.266424	-0.575641	-3.000863	-4.337055	-0.467705	-2.516805	-4.027265	-0.287795	-1.911795	-3.717476	-3.597643	-13.961655	-27.567312	0.000000	0.000000	8.702705	14.897657	27.036669	44.794272	23.820459	171.219657	0.082439	0.893075	-69.781910	-23.860552	-24.513472	-16.257485	-30.364339	104.774683	84.402336	-11.671318	7.125812
5.083333	-6.043615	3.328293	92.440563	0.049954	0.891968	0.717307	5.860030	-5.139514	10.432704	26.342316	0.459760	36.625915	-11.345077	0.000000	-2.496329	5.971895	-12.661704	10.048898	0.175386	35.391638	13.504696	0.000000	-0.455592	-1.251600	-4.894607	-0.846080	-1.664628	-5.200520	-0.748492	-3.043140	-5.200520	-0.520696	-3.043140	-4.282781	-0.423063	-2.552263	-3.976868	-0.260325	-1.938728	-3.670955	-3.254247	-14.158350	-27.222337	0.000000	0.000000	8.558653	15.157100	24.455629	39.800562	21.181182	171.610143	0.083168	0.915552	-69.784058	-23.896541	-19.799697	-18.004243	-27.799471	106.534044	83.613776	-11.241031	7.617531
5.100000	-5.920126	2.894459	93.597778	0.048224	0.894115	0.713788	5.393089	-5.194703	9.210413	25.388621	0.443115	36.197274	-11.270100	0.000000	-2.460523	5.870147	-11.571066	9.652760	0.168472	34.863085	13.707443	0.000000	-0.405933	-1.265780	-4.775615	-0.753858	-1.683487	-5.074091	-0.666907	-3.077617	-5.074091	-0.463940	-3.077617	-4.178663	-0.376949	-2.581178	-3.880187	-0.231950	-1.960693	-3.581712	-2.899536	-14.318752	-26.560540	0.000000	0.000000	8.490887	15.459485	21.432334	34.833653	18.366343	171.834444	0.083320	0.938829	-69.788397	-23.949457	-14.802922	-19.579550	-24.550325	108.336684	83.019259	-10.891638	7.493895
5.116667	-5.758083	2.471461	94.650590	0.046563	0.896329	0.710261	4.880799	-5.213922	8.027477	24.344633	0.424894	35.745009	-11.134079	0.000000	-2.430194	5.731612	-10.597120	9.290752	0.162154	34.312241	13.875442	0.000000	-0.358178	-1.277883	-4.612474	-0.665173	-1.699584	-4.900754	-0.588451	-3.107045	-4.900754	-0.409362	-3.107045	-4.035915	-0.332604	-2.605859	-3.747635	-0.204663	-1.979441	-3.459356	-2.558432	-14.455667	-25.653199	0.000000	0.000000	8.480302	15.833489	18.134221	30.075471	15.472945	171.881480	0.082730	0.961462	-69.794970	-24.019175	-9.641667	-21.012450	-20.809216	110.191755	82.595969	-10.615762	7.014863
5.133333	-5.581849	2.092274	95.585581	0.045017	0.898565	0.706917	4.332071	-5.209084	6.936803	23.251699	0.405819	35.287205	-10.977091	0.000000	-2.418959	5.583304	-9.715181	8.966449	0.156494	33.744001	13.962016	0.000000	-0.315576	-1.290790	-4.430126	-0.586057	-1.716751	-4.707009	-0.518461	-3.138427	-4.707009	-0.360672	-3.138427	-3.876360	-0.293044	-2.632179	-3.599477	-0.180320	-1.999434	-3.322594	-2.254131	-14.601675	-24.639032	0.000000	0.000000	8.481666	16.342405	14.770420	25.679703	12.616496	171.759142	0.081360	0.981491	-69.803561	-24.103364	-4.467902	-22.330367	-16.809709	112.138770	82.304055	-10.520716	6.481151
5.150000	-5.397028	1.767435	96.370949	0.043649	0.900757	0.703882	3.778260	-5.178043	5.979043	22.155560	0.386687	34.839748	-10.806775	0.000000	-2.425439	5.426504	-8.970155	8.684355	0.151571	33.178364	13.997363	0.000000	-0.278906	-1.304586	-4.237817	-0.517956	-1.735099	-4.502681	-0.458214	-3.171970	-4.502681	-0.318761	-3.171970	-3.708090	-0.258992	-2.660311	-3.443227	-0.159367	-2.020803	-3.178363	-1.992195	-14.757735	-23.569469	0.000000	0.000000	8.493166	16.980424	11.455376	21.727792	9.893045	171.479612	0.079241	0.996454	-69.813846	-24.197126	0.590404	-23.503522	-12.750407	114.172549	82.125383	-10.627695	6.133480
5.166667	-5.210659	1.486137	96.961466	0.042530	0.902825	0.701202	3.270970	-5.119540	5.214329	21.108840	0.368419	34.417862	-10.631971	0.000000	-2.444830	5.275278	-8.369140	8.419432	0.146947	32.613803	13.955518	0.000000	-0.245270	-1.318705	-4.032862	-0.455491	-1.753877	-4.284916	-0.402954	-3.206298	-4.284916	-0.280319	-3.206298	-3.528755	-0.227758	-2.689103	-3.276701	-0.140147	-2.042674	-3.024647	-1.751940	-14.917451	-22.429571	0.000000	0.000000	8.528684	17.706928	8.259789	18.219964	7.382441	171.057736	0.076482	1.004450	-69.825320	-24.292030	5.411958	-24.489627	-8.750631	116.201616	82.076514	-10.937014	5.889917
5.183333	-5.024843	1.254563	97.418407	0.041648	0.904717	0.698926	2.795318	-5.041061	4.592687	20.105841	0.350913	34.033512	-10.468652	0.000000	-2.455720	5.110203	-7.947658	8.231725	0.143671	32.085331	13.943728	0.000000	-0.217467	-1.334319	-3.832422	-0.403857	-1.774644	-4.071949	-0.357276	-3.244262	-4.071949	-0.248543	-3.244262	-3.353370	-0.201940	-2.720942	-3.113843	-0.124260	-2.066860	-2.874317	-1.553343	-15.094079	-21.314783	0.000000	0.000000	8.625982	18.559571	5.222818	15.130177	5.162065	170.457259	0.073356	1.005021	-69.837207	-24.377345	9.853163	-25.249070	-4.972157	118.247452	82.235188	-11.553461	5.928039
5.200000	-4.855554	1.057428	97.686570	0.041112	0.906354	0.697045	2.394155	-4.949473	4.190381	19.184919	0.334840	33.699682	-10.345187	0.000000	-2.458729	4.954620	-7.741921	8.091141	0.141217	31.587224	13.927774	0.000000	-0.191939	-1.352420	-3.622864	-0.356451	-1.798718	-3.849293	-0.315337	-3.288273	-3.849293	-0.219368	-3.288273	-3.170006	-0.178235	-2.757854	-2.943577	-0.109674	-2.094898	-2.717148	-1.371004	-15.298842	-20.149280	0.000000	0.000000	8.798451	19.480366	2.361889	12.405413	3.268184	169.690089	0.070145	0.997912	-69.848789	-24.439437	13.830117	-25.790579	-1.464885	120.190554	82.695162	-12.456884	6.046453
5.216667	-4.700989	0.893092	97.794491	0.040908	0.907671	0.695608	2.074545	-4.851097	3.948576	18.366234	0.320551	33.445564	-10.218547	0.000000	-2.437804	4.799252	-7.727493	8.027541	0.140107	31.152344	13.910405	0.000000	-0.170502	-1.371297	-3.418328	-0.316639	-1.823825	-3.631974	-0.280117	-3.334171	-3.631974	-0.194866	-3.334171	-2.991037	-0.158328	-2.796349	-2.777392	-0.097425	-2.124139	-2.563746	-1.217876	-15.512386	-19.011716	0.000000	0.000000	9.058280	20.438202	-0.220800	10.074038	1.723888	168.851499	0.067227	0.984905	-69.859129	-24.474200	17.236486	-26.156897	1.623672	121.989488	83.523873	-13.599829	6.277060
5.233333	-4.565255	0.763049	97.754323	0.041007	0.908599	0.694629	1.836030	-4.757703	3.823067	17.662290	0.308265	33.290941	-10.043344	0.000000	-2.384193	4.652381	-7.862342	8.058741	0.140652	30.809408	13.834050	0.000000	-0.153229	-1.388652	-3.230135	-0.284561	-1.846907	-3.432019	-0.251740	-3.376368	-3.432019	-0.175125	-3.376368	-2.826368	-0.142288	-2.831739	-2.624485	-0.087555	-2.151022	-2.422601	-1.094498	-15.708706	-17.965043	0.000000	0.000000	9.379608	21.380364	-2.387294	8.209784	0.521801	168.097127	0.064947	0.963461	-69.867185	-24.482819	19.978737	-26.412239	4.142378	123.587208	84.400486	-14.815610	6.590213
5.250000	-4.442293	0.662694	97.539895	0.041415	0.909075	0.694060	1.690173	-4.664828	3.827741	17.095360	0.298370	33.246991	-9.803750	0.000000	-2.292057	4.511252	-8.141296	8.188463	0.142916	30.603371	13.682242	0.000000	-0.138250	-1.400483	-3.049708	-0.256745	-1.862643	-3.240315	-0.227132	-3.405135	-3.240315	-0.158006	-3.405135	-2.668495	-0.128379	-2.855866	-2.477888	-0.078996	-2.169349	-2.287281	-0.987509	-15.842548	-16.961563	0.000000	0.000000	9.730850	22.209507	-4.060414	6.868085	-0.369184	167.459308	0.063557	0.942251	-69.872105	-24.480296	22.006178	-26.595836	6.066804	124.930413	85.246276	-16.100162	7.036449
5.266667	-4.325317	0.594070	97.150678	0.042073	0.909074	0.693902	1.632033	-4.579728	3.929999	16.668086	0.290913	33.309740	-9.456995	0.000000	-2.151642	4.374854	-8.515575	8.427528	0.147088	30.547333	13.385140	0.000000	-0.126272	-1.402073	-2.874870	-0.234499	-1.864757	-3.054550	-0.207452	-3.409001	-3.054550	-0.144316	-3.409001	-2.515511	-0.117256	-2.859108	-2.335832	-0.072152	-2.171811	-2.156153	-0.901947	-15.860532	-15.989166	0.000000	0.000000	10.109854	22.793978	-5.190993	6.103557	-0.982380	166.964898	0.063083	0.926067	-69.873578	-24.472572	23.269176	-26.709164	7.329510	125.987515	85.840152	-17.340069	7.716340
5.283333	-4.221783	0.553477	96.553569	0.042966	0.908586	0.694073	1.664592	-4.510387	4.175951	16.383350	0.285943	33.469100	-9.015152	0.000000	-1.966059	4.258075	-8.989763	8.761676	0.152920	30.660719	12.946050	0.000000	-0.114958	-1.391050	-2.699752	-0.213488	-1.850097	-2.868486	-0.188864	-3.382199	-2.868486	-0.131385	-3.382199	-2.362283	-0.106750	-2.836629	-2.193548	-0.065687	-2.154737	-2.024814	-0.821133	-15.735838	-15.015209	0.000000	0.000000	10.456560	23.110254	-5.613151	5.929384	-1.345225	166.720606	0.063604	0.918173	-69.871506	-24.461653	23.656211	-26.719857	7.858437	126.754734	86.011457	-18.414035	8.653720
5.300000	-4.133709	0.549615	95.754540	0.044116	0.907651	0.694519	1.771404	-4.458707	4.543453	16.240237	0.283446	33.723809	-8.451914	0.000000	-1.736759	4.160810	-9.467987	9.202592	0.160616	30.954798	12.279755	0.000000	-0.106019	-1.367361	-2.516962	-0.196889	-1.818590	-2.674272	-0.174179	-3.324602	-2.674272	-0.121170	-3.324602	-2.202342	-0.098450	-2.788323	-2.045032	-0.060580	-2.118042	-1.887722	-0.757286	-15.467862	-13.998589	0.000000	0.000000	10.803127	23.036318	-5.449676	6.315081	-1.481490	166.645095	0.065103	0.924955	-69.866392	-24.449931	23.114378	-26.611806	7.664227	127.239091	85.411843	-19.232779	9.905895
5.316667	-4.070968	0.575273	94.766366	0.045525	0.906318	0.695187	1.940181	-4.429216	5.054977	16.220622	0.283103	34.051322	-7.797444	0.000000	-1.462054	4.091215	-9.921053	9.744868	0.170080	31.408322	11.384984	0.000000	-0.098917	-1.333097	-2.331688	-0.183698	-1.773018	-2.477418	-0.162510	-3.241291	-2.477418	-0.113052	-3.241291	-2.040227	-0.091854	-2.718450	-1.894496	-0.056521	-2.064967	-1.748766	-0.706552	-15.080255	-12.968148	0.000000	0.000000	11.115073	22.622156	-4.661006	7.212328	-1.387280	166.813344	0.067418	0.941545	-69.858511	-24.433571	21.568898	-26.311501	6.680684	127.455720	84.211578	-19.671626	11.360486
5.333333	-4.047489	0.619239	93.611000	0.047255	0.904653	0.696039	2.163106	-4.427564	5.709794	16.304778	0.284572	34.432614	-7.068493	0.000000	-1.131622	4.050398	-10.376897	10.394241	0.181414	31.992963	10.322971	0.000000	-0.093142	-1.293522	-2.143549	-0.172975	-1.720384	-2.277521	-0.153024	-3.145069	-2.277521	-0.106453	-3.145069	-1.875606	-0.086492	-2.637750	-1.741634	-0.053222	-2.003666	-1.607662	-0.665307	-14.632580	-11.921778	0.000000	0.000000	11.392822	21.921643	-3.362534	8.531901	-1.049361	167.201733	0.070359	0.960442	-69.848280	-24.409334	19.044145	-25.786013	4.939108	127.398756	82.713879	-19.705202	12.808082
